<svg width="393" height="113" viewBox="0 0 393 113" fill="none" xmlns="http://www.w3.org/2000/svg">
<path d="M0 23.3418H17.0084V82.4258H26.9742V23.3418H43.9826V13.7707H0V23.3418Z" fill="#777777"/>
<path d="M87.3892 36.7593C85.6731 35.6195 83.8008 34.7335 81.8305 34.1289C78.808 33.1995 75.6162 32.9533 72.4866 33.4083C69.357 33.8632 66.3681 35.0079 63.7369 36.7593V33.289H54.1254V82.4261H63.7369V54.5751C63.7264 52.995 64.0431 51.4297 64.6671 49.9775C65.269 48.5747 66.1334 47.2994 67.2139 46.2198C68.2885 45.1486 69.559 44.2932 70.9566 43.6999C72.4076 43.062 73.9776 42.7381 75.5631 42.7495C77.5216 42.7321 79.4514 43.2193 81.1661 44.1641C82.832 45.0609 84.2594 46.3416 85.3296 47.8997L87.4113 46.2198L92.8593 41.799C91.36 39.7994 89.506 38.0912 87.3892 36.7593Z" fill="#777777"/>
<path d="M139.035 40.406C136.733 38.1445 134.029 36.3305 131.062 35.0568C127.982 33.7589 124.672 33.0902 121.329 33.0902C117.985 33.0902 114.676 33.7589 111.596 35.0568C105.608 37.5869 100.843 42.3434 98.3077 48.3192C97.0067 51.3973 96.3364 54.7042 96.3364 58.045C96.3364 61.3857 97.0067 64.6926 98.3077 67.7707C100.858 73.736 105.619 78.4874 111.596 81.0331C117.319 83.4404 123.734 83.6451 129.6 81.6078C132.184 80.7177 134.618 79.4435 136.82 77.828V82.4257H146.587V58.1113C146.614 54.7607 145.943 51.4411 144.616 48.3634C143.301 45.3686 141.404 42.6638 139.035 40.406ZM135.491 63.9909C133.914 67.6282 131.008 70.529 127.364 72.1031C125.476 72.905 123.446 73.3184 121.395 73.3184C119.344 73.3184 117.314 72.905 115.427 72.1031C111.783 70.529 108.876 67.6282 107.299 63.9909C106.483 62.1464 106.067 60.1499 106.081 58.1334C106.063 56.0808 106.478 54.0474 107.299 52.1653C108.886 48.5402 111.79 45.6496 115.427 44.0752C117.31 43.2581 119.342 42.8364 121.395 42.8364C123.449 42.8364 125.48 43.2581 127.364 44.0752C131 45.6496 133.904 48.5402 135.491 52.1653C136.312 54.0474 136.727 56.0808 136.709 58.1334C136.723 60.1499 136.308 62.1464 135.491 63.9909Z" fill="#777777"/>
<path d="M196.615 38.2399C194.492 36.6261 192.131 35.351 189.617 34.4601C187.008 33.5351 184.257 33.0714 181.489 33.0897C178.165 33.065 174.872 33.7195 171.811 35.0127C165.816 37.531 161.046 42.2914 158.523 48.2751C156.637 52.7996 156.137 57.7807 157.087 62.5886C158.037 67.3965 160.394 71.8153 163.86 75.2862C166.124 77.5416 168.801 79.3425 171.744 80.5912C174.812 81.8608 178.101 82.5143 181.422 82.5143C184.744 82.5143 188.032 81.8608 191.1 80.5912C194.054 79.3484 196.739 77.547 199.007 75.2862C201.309 72.9846 203.133 70.2507 204.372 67.2423C205.611 64.2339 206.241 61.0104 206.226 57.7578V0H196.615V38.2399ZM196.615 57.8462C196.633 59.8586 196.233 61.8529 195.441 63.7037C193.931 67.3529 191.032 70.2547 187.38 71.7717C185.516 72.5445 183.518 72.9423 181.5 72.9423C179.482 72.9423 177.484 72.5445 175.62 71.7717C173.801 71.06 172.139 70.0014 170.726 68.655C169.333 67.261 168.214 65.6191 167.426 63.8143C166.623 61.9655 166.208 59.9718 166.208 57.9567C166.208 55.9416 166.623 53.9479 167.426 52.0991C168.219 50.3039 169.338 48.6702 170.726 47.2805C172.479 45.5314 174.635 44.2384 177.005 43.5149C179.376 42.7914 181.888 42.6595 184.321 43.1309C186.754 43.6022 189.035 44.6623 190.962 46.2183C192.889 47.7742 194.404 49.7783 195.375 52.0549C196.168 53.8896 196.568 55.8699 196.548 57.8683L196.615 57.8462Z" fill="#777777"/>
<path d="M255.945 61.0295H265.712C265.901 59.979 265.998 58.9139 266 57.8465C266.014 55.6945 265.723 53.5513 265.136 51.4806C264.305 48.253 262.795 45.239 260.707 42.639C258.451 39.7028 255.559 37.3147 252.247 35.6541C248.819 33.9119 245.02 33.0245 241.174 33.0679C237.85 33.0433 234.556 33.6977 231.496 34.991C225.488 37.4911 220.713 42.2575 218.208 48.2534C216.334 52.7885 215.847 57.7758 216.809 62.5866C217.77 67.3974 220.137 71.8164 223.611 75.2866C225.879 77.5473 228.564 79.3487 231.518 80.5915C234.578 81.8848 237.872 82.5392 241.196 82.5146C245.042 82.558 248.841 81.6706 252.269 79.9284C255.532 78.2893 258.391 75.9492 260.64 73.0762C261.26 72.2583 261.836 71.4184 262.368 70.5784C262.908 69.7317 263.368 68.8363 263.741 67.9038H252.357C250.948 69.4538 249.237 70.702 247.33 71.5731C245.404 72.4444 243.311 72.8893 241.196 72.8772C237.701 72.9032 234.308 71.7066 231.606 69.4953C230.283 68.4361 229.152 67.1575 228.262 65.7155C227.36 64.2494 226.708 62.6432 226.335 60.9632H255.945V61.0295ZM232.957 45.1367C235.161 43.7342 237.69 42.9204 240.3 42.7733C242.909 42.6263 245.513 43.1508 247.862 44.2968C249.905 45.3155 251.697 46.7723 253.11 48.5628C253.443 49.0142 253.747 49.4868 254.018 49.9775C254.284 50.4638 254.594 50.9722 254.904 51.4806H227.465C228.676 48.9017 230.576 46.7065 232.957 45.1367Z" fill="#777777"/>
<path d="M240.087 95.908C239.408 94.9774 238.506 94.2258 237.462 93.7193C236.417 93.2128 235.262 92.967 234.099 93.0036C233.16 92.9917 232.228 93.1658 231.358 93.5155C230.489 93.8652 229.699 94.3835 229.037 95.0394C228.375 95.6953 227.854 96.4756 227.504 97.3338C227.154 98.1921 226.983 99.1108 227.001 100.035C226.989 100.956 227.165 101.87 227.517 102.723C227.87 103.577 228.392 104.352 229.054 105.003C229.715 105.654 230.502 106.168 231.369 106.515C232.235 106.862 233.163 107.035 234.099 107.023C235.279 107.032 236.444 106.754 237.488 106.213C238.533 105.672 239.426 104.885 240.087 103.922V105.67C240.154 106.392 240.057 107.121 239.803 107.802C239.549 108.484 239.143 109.101 238.617 109.609C238.09 110.117 237.455 110.503 236.758 110.74C236.061 110.976 235.319 111.057 234.587 110.976C232.484 110.986 230.436 110.318 228.753 109.076L227.733 110.801C229.736 112.221 232.141 112.984 234.609 112.985C235.656 113.049 236.706 112.906 237.696 112.565C238.686 112.223 239.597 111.691 240.376 110.998C241.046 110.296 241.564 109.468 241.9 108.563C242.235 107.659 242.381 106.697 242.328 105.735V93.2219H240.11L240.087 95.908ZM240.087 99.9698C240.059 100.661 239.892 101.34 239.597 101.968C239.301 102.596 238.883 103.16 238.366 103.629C237.849 104.097 237.243 104.461 236.583 104.699C235.923 104.936 235.222 105.044 234.52 105.014C233.835 105.032 233.154 104.914 232.517 104.666C231.879 104.419 231.299 104.048 230.811 103.575C230.322 103.102 229.935 102.538 229.673 101.914C229.411 101.291 229.28 100.622 229.286 99.948C229.273 99.2738 229.401 98.6041 229.661 97.9804C229.921 97.3566 230.309 96.792 230.799 96.3213C231.29 95.8507 231.873 95.484 232.513 95.2439C233.153 95.0038 233.836 94.8953 234.52 94.9253C235.929 94.86 237.306 95.3476 238.35 96.2811C239.393 97.2146 240.018 98.5177 240.087 99.9043V99.9698Z" fill="#777777"/>
<path d="M248.095 97.1088V93.2216H245.877V108.137H248.095V102.197C248.095 97.6984 250.801 95.3617 254.105 95.3617H254.283V93.0032C252.948 92.9788 251.638 93.3598 250.531 94.0944C249.423 94.8289 248.573 95.8815 248.095 97.1088Z" fill="#777777"/>
<path d="M262.556 93.0029C261.515 92.9912 260.483 93.1843 259.52 93.5709C258.557 93.9574 257.681 94.5296 256.946 95.2539C256.21 95.9781 255.629 96.8398 255.237 97.7883C254.844 98.7368 254.648 99.753 254.66 100.777C254.648 101.795 254.843 102.804 255.233 103.746C255.624 104.688 256.202 105.544 256.934 106.262C257.666 106.981 258.536 107.548 259.494 107.929C260.452 108.311 261.478 108.501 262.511 108.486C263.552 108.495 264.584 108.3 265.547 107.912C266.51 107.525 267.385 106.953 268.122 106.23C268.859 105.506 269.442 104.646 269.838 103.699C270.234 102.751 270.435 101.736 270.43 100.712C270.438 99.6932 270.241 98.6832 269.848 97.7411C269.454 96.799 268.874 95.9437 268.141 95.2255C267.407 94.5074 266.535 93.9408 265.576 93.5591C264.617 93.1774 263.59 92.9883 262.556 93.0029ZM268.123 100.843C268.156 101.582 268.036 102.321 267.771 103.014C267.506 103.707 267.101 104.34 266.581 104.875C266.061 105.41 265.436 105.835 264.744 106.125C264.052 106.416 263.308 106.565 262.556 106.564C261.8 106.556 261.053 106.399 260.359 106.101C259.666 105.804 259.04 105.373 258.519 104.833C257.998 104.294 257.592 103.657 257.326 102.96C257.059 102.263 256.937 101.521 256.966 100.777C256.934 100.037 257.052 99.2982 257.315 98.6043C257.579 97.9103 257.981 97.2756 258.498 96.7377C259.015 96.1999 259.637 95.7699 260.327 95.4735C261.016 95.177 261.759 95.0201 262.511 95.012C263.27 95.0289 264.017 95.1936 264.71 95.4964C265.404 95.7992 266.029 96.2342 266.551 96.7762C267.073 97.3183 267.48 97.9568 267.75 98.6547C268.02 99.3527 268.146 100.096 268.123 100.843Z" fill="#777777"/>
<path d="M283.782 101.739C283.824 102.337 283.741 102.938 283.537 103.504C283.334 104.07 283.014 104.588 282.597 105.026C282.181 105.465 281.678 105.814 281.118 106.053C280.559 106.291 279.955 106.413 279.346 106.412C278.755 106.439 278.165 106.339 277.618 106.117C277.071 105.895 276.58 105.558 276.18 105.129C275.78 104.7 275.481 104.189 275.304 103.633C275.126 103.078 275.075 102.491 275.154 101.913V93.1781H272.936V102.437C272.861 103.218 272.959 104.005 273.221 104.745C273.483 105.486 273.904 106.162 274.456 106.727C275.007 107.293 275.676 107.735 276.416 108.024C277.157 108.312 277.952 108.44 278.747 108.399C279.795 108.426 280.831 108.169 281.742 107.657C282.653 107.145 283.405 106.397 283.915 105.495V108.093H286.133V93.2217H283.915L283.782 101.739Z" fill="#777777"/>
<path d="M297.755 93.0032C296.578 93.0167 295.424 93.3294 294.406 93.9109C293.388 94.4925 292.54 95.3232 291.944 96.3226V93.2216H289.726V112.657H291.944V105.276C292.562 106.244 293.419 107.042 294.435 107.596C295.451 108.15 296.593 108.441 297.755 108.443C298.753 108.421 299.736 108.201 300.646 107.796C301.556 107.39 302.373 106.808 303.048 106.084C303.724 105.36 304.243 104.509 304.576 103.582C304.909 102.655 305.048 101.671 304.985 100.69C305.042 99.7136 304.898 98.7358 304.562 97.8152C304.226 96.8946 303.705 96.0502 303.03 95.3326C302.355 94.6149 301.54 94.0387 300.634 93.6385C299.727 93.2382 298.748 93.0222 297.755 93.0032ZM302.656 100.799C302.724 101.528 302.637 102.262 302.4 102.956C302.164 103.65 301.783 104.287 301.282 104.827C300.781 105.368 300.171 105.799 299.491 106.095C298.811 106.39 298.076 106.543 297.333 106.543C296.588 106.52 295.856 106.353 295.177 106.051C294.498 105.748 293.886 105.317 293.377 104.781C292.868 104.245 292.471 103.616 292.21 102.929C291.949 102.242 291.828 101.511 291.855 100.777C291.813 99.3041 292.366 97.8745 293.393 96.802C294.42 95.7295 295.837 95.1016 297.333 95.056C298.074 95.0686 298.805 95.2305 299.48 95.5315C300.155 95.8326 300.761 96.2664 301.26 96.8064C301.758 97.3465 302.139 97.9812 302.38 98.6716C302.62 99.3621 302.714 100.094 302.656 100.821V100.799Z" fill="#777777"/>
<path d="M392.989 51.3213C392.989 50.4819 392.989 49.6647 392.989 48.8474C393.004 49.068 393.004 49.2894 392.989 49.51V49.3775C392.503 42.8563 390.099 36.6247 386.078 31.4677C382.058 26.3108 376.602 22.459 370.397 20.3976C367.186 19.3391 363.838 18.7586 360.459 18.6747H320.905V55.2088C320.9 58.6984 319.844 62.1055 317.874 64.9857C315.904 67.8659 313.113 70.0857 309.863 71.3554L308.891 71.7088C308.219 71.9324 307.533 72.1095 306.837 72.239L305.799 72.4157C305.066 72.5042 304.329 72.5485 303.591 72.5482C300.196 72.5465 296.877 71.5468 294.046 69.6736C291.215 67.8003 288.997 65.136 287.668 62.012C287.337 61.263 287.071 60.4871 286.873 59.6928C286.748 58.7402 286.674 57.7817 286.652 56.8213C286.618 56.2843 286.618 55.7458 286.652 55.2088V19.0502H291.069L285.813 14.0361L280.866 9.35341L280.49 9L275.234 13.992L270 19.006H274.174V55.2088C274.18 63.0883 277.311 70.6438 282.879 76.2175C288.448 81.7912 296 84.9281 303.878 84.9398H304.297C307.285 84.711 310.244 84.1932 313.131 83.3936V83.3936C319.025 81.3992 324.146 77.608 327.775 72.5527C331.403 67.4973 333.357 61.4319 333.361 55.2088V34.512V31H359.862C363.974 31.0036 367.992 32.227 371.408 34.5153C374.825 36.8037 377.485 40.0541 379.054 43.8554C379.293 44.4099 379.499 44.9778 379.672 45.5562C379.868 46.1355 380.03 46.7255 380.158 47.3233C380.475 48.7746 380.638 50.2554 380.644 51.741C380.645 52.5453 380.6 53.3491 380.512 54.1486C380.512 54.6787 380.357 55.1867 380.269 55.7169C380.18 56.247 380.158 56.2249 380.092 56.49C379.385 59.4722 378.029 62.2618 376.12 64.6595C374.211 67.0573 371.797 69.0042 369.05 70.3614C368.608 70.5823 368.122 70.8032 367.658 70.9799C366.941 71.2837 366.203 71.5347 365.45 71.7309C364.36 72.046 363.244 72.2604 362.115 72.3715C361.386 72.3715 360.635 72.3715 359.907 72.3715H345.861C339.341 72.3773 333.09 74.9686 328.479 79.5772C323.867 84.1857 321.27 90.4354 321.258 96.9558V108H333.648V96.9558C333.64 94.6501 334.286 92.3893 335.509 90.4349C336.732 88.4805 338.483 86.9123 340.56 85.9116L341.068 85.6687C342.299 85.1512 343.603 84.8307 344.933 84.7189H359.862C368.591 84.7193 376.967 81.2741 383.17 75.132C389.373 68.9899 392.902 60.6474 392.989 51.9177V51.3213Z" fill="#4E7DF0"/>
</svg>
